<?xml version="1.0" encoding="UTF-8" standalone="no"?>
<!DOCTYPE svg PUBLIC "-//W3C//DTD SVG 1.1//EN" "http://www.w3.org/Graphics/SVG/1.1/DTD/svg11.dtd">
<svg xmlns="http://www.w3.org/2000/svg" version="1.1" viewBox="0.00 0.00 1080.00 172.00">
<path fill="#ffffff" d="
  M 44.00 44.05
  L 44.00 131.98
  Q 44.00 132.59 44.61 132.59
  Q 78.72 132.38 111.54 127.56
  A 0.40 0.40 0.0 0 1 112.00 127.97
  L 110.62 156.25
  Q 110.61 156.56 110.29 156.59
  Q 82.08 159.01 55.52 158.98
  Q 45.18 158.97 36.32 155.84
  C 16.46 148.83 13.12 124.96 13.02 106.99
  Q 12.91 86.86 13.10 66.28
  Q 13.19 55.74 15.66 45.70
  C 18.85 32.72 26.33 22.50 39.66 19.07
  Q 47.44 17.06 55.50 17.06
  Q 82.68 17.06 109.26 19.42
  Q 109.81 19.47 109.84 20.02
  L 111.19 47.96
  Q 111.22 48.50 110.68 48.42
  Q 77.71 43.59 44.63 43.43
  Q 44.00 43.42 44.00 44.05
  Z"
/>
<path fill="#ffffff" d="
  M 560.00 131.95
  L 560.00 103.53
  Q 560.00 102.97 559.45 102.92
  Q 543.01 101.45 525.46 99.61
  C 512.75 98.28 499.50 93.73 494.38 81.61
  C 490.76 73.03 490.78 63.72 490.97 54.05
  Q 491.11 46.83 492.43 41.09
  C 498.14 16.41 523.84 16.51 543.78 17.15
  Q 564.94 17.83 584.87 19.16
  Q 585.42 19.20 585.45 19.75
  L 586.98 47.74
  Q 587.01 48.27 586.48 48.20
  Q 554.88 44.38 522.62 43.41
  Q 522.00 43.39 522.00 44.00
  L 522.00 71.78
  Q 522.00 72.40 522.61 72.46
  Q 538.95 74.02 555.52 75.67
  C 568.74 76.98 583.02 81.64 588.05 94.97
  C 591.25 103.42 591.22 112.32 590.99 121.77
  C 590.59 137.52 585.38 150.47 569.61 155.71
  Q 558.74 159.32 543.60 159.01
  Q 518.42 158.49 493.41 156.47
  Q 492.77 156.42 492.74 155.79
  L 491.43 128.20
  Q 491.39 127.35 492.23 127.46
  Q 525.75 131.84 559.42 132.51
  Q 560.00 132.53 560.00 131.95
  Z"
/>
<path fill="#ffffff" d="
  M 194.25 44.59
  L 194.25 131.41
  A 0.59 0.59 0.0 0 0 194.84 132.00
  L 227.41 132.01
  A 0.59 0.59 0.0 0 1 228.00 132.60
  L 228.00 155.41
  A 0.59 0.59 0.0 0 1 227.41 156.00
  L 132.59 156.00
  A 0.59 0.59 0.0 0 1 132.00 155.41
  L 132.00 132.59
  A 0.59 0.59 0.0 0 1 132.59 132.00
  L 165.16 132.00
  A 0.59 0.59 0.0 0 0 165.75 131.41
  L 165.75 44.59
  A 0.59 0.59 0.0 0 0 165.16 44.00
  L 132.59 44.00
  A 0.59 0.59 0.0 0 1 132.00 43.41
  L 132.00 20.59
  A 0.59 0.59 0.0 0 1 132.59 20.00
  L 227.41 20.00
  A 0.59 0.59 0.0 0 1 228.00 20.59
  L 228.00 43.41
  A 0.59 0.59 0.0 0 1 227.41 44.00
  L 194.84 44.00
  A 0.59 0.59 0.0 0 0 194.25 44.59
  Z"
/>
<path fill="#ffffff" d="
  M 332.32 133.82
  Q 328.98 120.12 325.25 105.66
  Q 324.30 102.01 324.32 97.78
  Q 324.45 60.22 324.34 20.67
  Q 324.34 20.00 325.01 20.00
  L 348.99 20.00
  Q 349.47 20.00 349.47 20.49
  L 349.47 155.76
  A 0.24 0.23 90.0 0 1 349.24 156.00
  L 310.99 156.00
  A 0.60 0.59 80.3 0 1 310.43 155.60
  L 271.63 42.16
  Q 271.58 42.01 271.43 42.01
  L 267.77 42.01
  Q 267.61 42.01 267.65 42.16
  Q 271.03 55.83 274.71 70.28
  Q 275.65 73.95 275.64 78.58
  Q 275.61 115.07 275.63 155.38
  Q 275.63 156.00 275.02 156.00
  L 251.14 156.00
  Q 250.53 156.00 250.53 155.39
  L 250.53 20.49
  Q 250.53 20.00 251.01 20.00
  L 288.78 20.00
  Q 289.43 20.00 289.63 20.61
  L 328.32 133.70
  A 0.45 0.45 0.0 0 0 328.75 134.01
  L 332.19 133.98
  Q 332.36 133.98 332.32 133.82
  Z"
/>
<path fill="#ffffff" d="
  M 405.00 46.53
  L 405.00 74.00
  A 0.53 0.53 0.0 0 0 405.53 74.53
  L 457.47 74.53
  A 0.53 0.53 0.0 0 1 458.00 75.06
  L 458.00 99.10
  A 0.53 0.53 0.0 0 1 457.47 99.63
  L 405.53 99.63
  A 0.53 0.53 0.0 0 0 405.00 100.16
  L 405.00 129.47
  A 0.53 0.53 0.0 0 0 405.53 130.00
  L 467.47 130.00
  A 0.53 0.53 0.0 0 1 468.00 130.53
  L 468.00 155.47
  A 0.53 0.53 0.0 0 1 467.47 156.00
  L 375.51 156.00
  A 0.53 0.53 0.0 0 1 374.98 155.47
  L 374.99 20.53
  A 0.53 0.53 0.0 0 1 375.52 20.00
  L 467.47 20.00
  A 0.53 0.53 0.0 0 1 468.00 20.53
  L 468.00 45.47
  A 0.53 0.53 0.0 0 1 467.47 46.00
  L 405.53 46.00
  A 0.53 0.53 0.0 0 0 405.00 46.53
  Z"
/>
<path fill="#ffffff" d="
  M 678.26 100.00
  L 641.75 100.00
  A 0.75 0.75 0.0 0 0 641.00 100.75
  L 641.00 155.25
  A 0.75 0.75 0.0 0 1 640.25 156.00
  L 611.75 156.00
  A 0.75 0.75 0.0 0 1 611.00 155.25
  L 611.00 20.75
  A 0.75 0.75 0.0 0 1 611.75 20.00
  L 640.25 20.00
  A 0.75 0.75 0.0 0 1 641.00 20.75
  L 641.00 72.25
  A 0.75 0.75 0.0 0 0 641.75 73.00
  L 678.22 72.97
  A 0.75 0.75 0.0 0 0 678.97 72.22
  L 679.00 20.75
  A 0.75 0.75 0.0 0 1 679.75 20.00
  L 708.26 20.01
  A 0.75 0.75 0.0 0 1 709.01 20.76
  L 709.00 155.25
  A 0.75 0.75 0.0 0 1 708.25 156.00
  L 679.74 156.00
  A 0.75 0.75 0.0 0 1 678.99 155.25
  L 679.01 100.75
  A 0.75 0.75 0.0 0 0 678.26 100.00
  Z"
/>
<path fill="#ffffff" d="
  M 765.00 46.53
  L 765.00 74.00
  A 0.53 0.53 0.0 0 0 765.53 74.53
  L 817.47 74.53
  A 0.53 0.53 0.0 0 1 818.00 75.06
  L 818.00 99.10
  A 0.53 0.53 0.0 0 1 817.47 99.63
  L 765.53 99.63
  A 0.53 0.53 0.0 0 0 765.00 100.16
  L 765.00 129.47
  A 0.53 0.53 0.0 0 0 765.53 130.00
  L 827.47 130.00
  A 0.53 0.53 0.0 0 1 828.00 130.53
  L 828.00 155.47
  A 0.53 0.53 0.0 0 1 827.47 156.00
  L 735.52 156.00
  A 0.53 0.53 0.0 0 1 734.99 155.47
  L 734.99 20.53
  A 0.53 0.53 0.0 0 1 735.52 20.00
  L 827.47 20.00
  A 0.53 0.53 0.0 0 1 828.00 20.53
  L 828.00 45.47
  A 0.53 0.53 0.0 0 1 827.47 46.00
  L 765.53 46.00
  A 0.53 0.53 0.0 0 0 765.00 46.53
  Z"
/>
<path fill="#ffffff" d="
  M 951.00 129.71
  L 951.00 155.29
  A 0.71 0.71 0.0 0 1 950.29 156.00
  L 859.70 156.00
  A 0.71 0.71 0.0 0 1 858.99 155.29
  L 859.00 20.71
  A 0.71 0.71 0.0 0 1 859.71 20.00
  L 888.29 20.00
  A 0.71 0.71 0.0 0 1 889.00 20.71
  L 889.00 128.28
  A 0.71 0.71 0.0 0 0 889.71 128.99
  L 950.29 129.00
  A 0.71 0.71 0.0 0 1 951.00 129.71
  Z"
/>
<path fill="#ffffff" d="
  M 1061.01 78.68
  L 1060.99 103.32
  A 0.68 0.68 0.0 0 1 1060.31 104.00
  L 1008.68 104.00
  A 0.68 0.68 0.0 0 0 1008.00 104.68
  L 1008.00 155.32
  A 0.68 0.68 0.0 0 1 1007.32 156.00
  L 978.68 156.00
  A 0.68 0.68 0.0 0 1 978.00 155.32
  L 978.00 20.68
  A 0.68 0.68 0.0 0 1 978.68 20.00
  L 1070.33 20.00
  A 0.68 0.68 0.0 0 1 1071.01 20.68
  L 1070.99 46.32
  A 0.68 0.68 0.0 0 1 1070.31 47.00
  L 1008.68 47.00
  A 0.68 0.68 0.0 0 0 1008.00 47.68
  L 1008.00 77.32
  A 0.68 0.68 0.0 0 0 1008.68 78.00
  L 1060.33 78.00
  A 0.68 0.68 0.0 0 1 1061.01 78.68
  Z"
/>
</svg>
